<?xml version="1.0" encoding="UTF-8" standalone="no"?><!DOCTYPE svg PUBLIC "-//W3C//DTD SVG 1.1//EN" "http://www.w3.org/Graphics/SVG/1.1/DTD/svg11.dtd"><svg width="100%" height="100%" viewBox="0 0 2212 697" version="1.1" xmlns="http://www.w3.org/2000/svg" xmlns:xlink="http://www.w3.org/1999/xlink" xml:space="preserve" xmlns:serif="http://www.serif.com/" style="fill-rule:evenodd;clip-rule:evenodd;stroke-linecap:round;stroke-linejoin:round;stroke-miterlimit:1.5;"><g><g><g><path d="M-0,349.487c-0,-200.749 114.81,-349.487 269.085,-349.487c47.096,0 81.442,15.92 111.024,50.371l44.764,39.101l0,149.112l-27.759,-0.046l-0.036,-0.376l-0.027,0c-21.527,-140.525 -71.757,-215.35 -145.905,-215.35c-96.87,0 -155.471,107.676 -154.275,310.251c0.033,5.797 0.115,11.535 0.245,17.211" style="fill-rule:nonzero;fill:#ffffff;"/><path d="M-0,346.894c-0,200.75 114.81,349.488 269.085,349.488c47.096,-0 81.442,-15.92 111.024,-50.372l44.764,-39.101l-0.379,-148.1l-27.38,-0.965l-0.036,0.375l-0.027,0c-21.527,140.525 -71.757,215.35 -145.905,215.35c-96.87,0 -155.471,-107.675 -154.275,-310.25c0.033,-5.798 0.115,-11.535 0.245,-17.212" style="fill-rule:nonzero;fill:#ffffff;"/></g></g><g><g><path d="M662.12,480.201l138.909,0l-0,-2.459l-40.767,-12.297l-0,-434.68l40.767,-12.296l-0,-2.459l-138.909,-0l-0,2.459l41.522,12.296l-0,197.973l-167.597,0l-0,-197.973l41.522,-12.296l-0,-2.459l-139.664,-0l-0,2.459l41.521,12.296l0,434.68l-41.521,12.297l-0,2.459l139.664,0l-0,-2.459l-41.522,-12.297l-0,-224.41l167.597,-0l-0,224.41l-41.522,12.297l-0,2.459Z" style="fill-rule:nonzero;fill:#ffffff;"/><path d="M1073.56,465.445l-38.502,12.297l0,2.459l129.85,0l-0,-3.074l-32.463,-11.682l-121.545,-449.435l-104.182,-0l0,2.459l39.257,15.37l-98.897,431.606l-31.707,11.682l-0,3.074l80.778,0l0,-1.844l-33.217,-12.912l48.316,-214.573l106.446,0l55.866,214.573Zm-159.292,-226.255l46.806,-204.121l53.601,204.121l-100.407,0Z" style="fill-rule:nonzero;fill:#ffffff;"/><path d="M1282.68,486.349c88.328,0 157.028,-86.075 89.083,-175.839c-49.826,-66.401 -120.79,-122.35 -160.047,-190.595c-26.423,-47.342 11.324,-96.528 64.925,-96.528c51.336,0 88.328,51.031 102.672,146.943l3.774,0l-15.098,-131.572c-21.894,-19.674 -50.581,-28.897 -84.554,-28.897c-73.984,0 -138.154,73.779 -92.102,174.61c18.873,41.193 125.32,150.017 154.762,181.988c55.111,60.867 -3.019,97.142 -55.11,97.142c-57.376,-0.615 -98.143,-48.571 -114.751,-138.335l-3.775,-0l15.099,132.187c21.138,19.674 55.111,28.282 95.122,28.896Z" style="fill-rule:nonzero;fill:#ffffff;"/><path d="M1417.06,480.201l227.991,0l19.629,-124.809l-3.775,0c-15.854,86.075 -31.707,112.513 -61.905,112.513l-84.553,-0l-0,-217.033l98.897,0l15.099,52.26l3.774,0l0,-124.809l-3.774,-0l-15.099,60.867l-98.897,0l-0,-210.884l77.004,0c30.197,0 44.541,42.423 61.905,112.513l3.774,-0l-19.628,-124.809l-220.442,-0l-0,2.459l41.521,12.296l0,434.68l-41.521,12.297l-0,2.459Z" style="fill-rule:nonzero;fill:#ffffff;"/><path d="M1682.8,16.01l0,2.459l42.277,12.296l0,434.68l-43.786,12.297l-0,2.459l139.663,0l0,-2.459l-40.011,-12.297l-0,-213.343c27.932,3.074 61.15,15.37 70.964,39.348c12.834,30.742 11.324,121.735 30.952,170.921c7.55,19.06 32.463,25.823 57.376,25.823c15.099,-0 30.952,-2.459 43.786,-6.763l0,-3.074c-76.249,-0 -52.845,-127.269 -73.984,-183.218c-11.324,-29.511 -49.071,-39.963 -86.063,-44.267c64.925,-7.993 113.241,-56.564 113.241,-116.816c0,-62.098 -50.581,-118.046 -106.446,-118.046l-147.969,-0Zm98.143,12.296l25.668,0c46.051,0 70.209,33.815 70.209,98.372c-0,70.09 -28.688,112.512 -77.004,112.512l-18.873,0l-0,-210.884Z" style="fill-rule:nonzero;fill:#ffffff;"/><path d="M2095,486.349c88.327,0 157.027,-86.075 89.082,-175.839c-49.826,-66.401 -120.79,-122.35 -160.047,-190.595c-26.423,-47.342 11.324,-96.528 64.925,-96.528c51.336,0 88.328,51.031 102.672,146.943l3.775,0l-15.099,-131.572c-21.894,-19.674 -50.581,-28.897 -84.554,-28.897c-73.984,0 -138.154,73.779 -92.102,174.61c18.873,41.193 125.32,150.017 154.762,181.988c55.111,60.867 -3.019,97.142 -55.11,97.142c-57.376,-0.615 -98.142,-48.571 -114.751,-138.335l-3.775,-0l15.099,132.187c21.138,19.674 55.111,28.282 95.123,28.896Z" style="fill-rule:nonzero;fill:#ffffff;"/></g></g><rect x="437.903" y="507.537" width="1773.68" height="22.631" style="fill:#ffffff;"/><g><rect x="129.818" y="486.306" width="238.692" height="48.291" style="fill:#ffffff;"/><g><path d="M109.621,460.93c18.83,126.487 77.05,176.626 77.05,176.626c0,-0 13.125,15.766 57.201,22.936" style="stroke:#ffffff;stroke-width:4.17px;"/><path d="M109.621,460.93l279.622,-1.323" style="fill:none;stroke:#ffffff;stroke-width:4.17px;"/><path d="M243.872,660.492c0,0 52.584,6.508 90.778,-50.878c-0,0 45.851,-75.622 54.593,-150.007" style="stroke:#ffffff;stroke-width:4.17px;"/></g><ellipse cx="248.032" cy="560.05" rx="95.14" ry="100.443" style="fill:#ffffff;"/><rect x="109.621" y="460.93" width="278.202" height="8.856" style="fill:#ffffff;"/><rect x="115.121" y="465.619" width="267.53" height="24.853" style="fill:#ffffff;"/></g><g><path d="M453.112,689.87l-0,-127.031l29.035,-0c10.526,-0 19.388,1.814 26.586,5.444c7.198,3.629 12.975,8.484 17.331,14.563c4.355,6.079 7.501,12.884 9.436,20.416c1.936,7.531 2.904,15.228 2.904,23.092c-0,7.319 -0.892,14.699 -2.677,22.14c-1.784,7.44 -4.809,14.291 -9.074,20.552c-4.264,6.26 -10.071,11.296 -17.421,15.107c-7.35,3.811 -16.62,5.717 -27.811,5.717l-28.309,-0Zm6.533,-6.533l21.776,-0c9.8,-0 17.936,-1.709 24.408,-5.127c6.473,-3.418 11.584,-7.939 15.335,-13.565c3.75,-5.626 6.412,-11.781 7.985,-18.465c1.573,-6.684 2.359,-13.293 2.359,-19.826c-0,-7.017 -0.847,-13.913 -2.541,-20.688c-1.693,-6.775 -4.461,-12.9 -8.302,-18.374c-3.841,-5.474 -8.923,-9.83 -15.244,-13.066c-6.321,-3.236 -14.079,-4.854 -23.274,-4.854l-22.502,-0l-0,113.965Z" style="fill-rule:nonzero;fill:#ffffff;"/><path d="M572.974,689.87l0,-127.031l66.238,-0l0,5.988l-59.705,0l0,52.264l40.287,0l0,5.989l-40.287,-0l0,56.801l63.697,-0l0,5.989l-70.23,-0Z" style="fill-rule:nonzero;fill:#ffffff;"/><path d="M710.349,692.047c-6.472,0 -12.355,-1.225 -17.648,-3.675c-5.293,-2.449 -9.83,-5.701 -13.61,-9.754c-3.781,-4.053 -6.669,-8.468 -8.666,-13.247l6.896,-2.178c3.025,6.715 7.441,12.144 13.248,16.287c5.807,4.144 12.461,6.216 19.962,6.216c9.013,-0 16.257,-2.329 21.731,-6.987c5.475,-4.658 8.212,-11.463 8.212,-20.416c-0,-5.746 -1.452,-10.752 -4.355,-15.017c-2.904,-4.264 -6.685,-7.909 -11.342,-10.933c-4.658,-3.025 -9.649,-5.566 -14.972,-7.622c-4.234,-1.633 -8.423,-3.463 -12.567,-5.49c-4.144,-2.026 -7.924,-4.431 -11.342,-7.213c-3.418,-2.783 -6.155,-6.095 -8.212,-9.936c-2.056,-3.841 -3.085,-8.393 -3.085,-13.656c0,-5.263 1.316,-9.996 3.947,-14.2c2.632,-4.204 6.503,-7.516 11.615,-9.936c5.111,-2.419 11.357,-3.629 18.737,-3.629c5.262,-0 10.132,0.862 14.608,2.586c4.477,1.724 8.318,4.143 11.524,7.259c3.206,3.115 5.504,6.79 6.896,11.024l-6.533,1.996c-2.178,-5.262 -5.52,-9.33 -10.027,-12.204c-4.506,-2.873 -10.177,-4.31 -17.013,-4.31c-8.408,0 -14.986,1.951 -19.735,5.853c-4.748,3.902 -7.123,9.21 -7.123,15.924c0,5.444 1.513,9.966 4.537,13.565c3.025,3.599 6.926,6.639 11.705,9.119c4.779,2.48 9.769,4.779 14.972,6.896c3.992,1.633 8.03,3.554 12.113,5.762c4.083,2.208 7.818,4.885 11.206,8.03c3.387,3.146 6.125,6.866 8.212,11.161c2.087,4.295 3.13,9.346 3.13,15.153c-0,7.138 -1.588,13.202 -4.764,18.192c-3.175,4.991 -7.546,8.802 -13.111,11.433c-5.565,2.632 -11.947,3.947 -19.146,3.947Z" style="fill-rule:nonzero;fill:#ffffff;"/><rect x="781.85" y="562.839" width="6.533" height="127.031" style="fill-rule:nonzero;fill:#ffffff;"/><path d="M873.312,692.047c-8.892,0 -16.484,-1.83 -22.775,-5.489c-6.291,-3.66 -11.402,-8.62 -15.334,-14.881c-3.932,-6.261 -6.82,-13.308 -8.665,-21.142c-1.845,-7.833 -2.768,-15.894 -2.768,-24.181c0,-8.65 0.968,-16.922 2.904,-24.816c1.935,-7.894 4.915,-14.911 8.937,-21.051c4.023,-6.14 9.165,-10.979 15.425,-14.518c6.261,-3.539 13.686,-5.308 22.276,-5.308c5.989,-0 11.191,0.877 15.607,2.631c4.416,1.754 8.181,3.962 11.297,6.624c3.115,2.662 5.701,5.384 7.758,8.166l-5.808,3.811c-2.782,-3.932 -6.472,-7.365 -11.069,-10.298c-4.598,-2.934 -10.526,-4.401 -17.785,-4.401c-7.864,-0 -14.503,1.754 -19.916,5.263c-5.414,3.508 -9.785,8.166 -13.112,13.973c-3.327,5.807 -5.731,12.189 -7.213,19.145c-1.482,6.957 -2.223,13.883 -2.223,20.779c-0,7.682 0.816,15.062 2.449,22.14c1.634,7.077 4.159,13.398 7.577,18.964c3.418,5.565 7.803,9.966 13.157,13.202c5.353,3.236 11.78,4.854 19.281,4.854c6.775,0 12.658,-1.633 17.648,-4.9c4.991,-3.266 8.862,-8.181 11.615,-14.744c2.752,-6.563 4.128,-14.836 4.128,-24.817l0,-2.177l-26.676,-0l-0,-6.17l33.572,-0l0,6.17c0,12.582 -1.739,22.775 -5.217,30.578c-3.478,7.803 -8.257,13.52 -14.337,17.149c-6.079,3.63 -12.99,5.444 -20.733,5.444Z" style="fill-rule:nonzero;fill:#ffffff;"/><path d="M951.89,689.87l-0,-127.031l6.352,-0l65.148,105.435c0.908,1.452 1.845,2.964 2.813,4.537c0.968,1.573 1.906,3.146 2.813,4.718l-0,-114.69l6.533,-0l0,127.031l-6.352,-0l-65.148,-105.436c-0.908,-1.452 -1.845,-2.979 -2.813,-4.582c-0.968,-1.603 -1.906,-3.161 -2.813,-4.673l0,114.691l-6.533,-0Z" style="fill-rule:nonzero;fill:#ffffff;"/><path d="M1063.68,689.87l43.554,-127.031l4.718,-0l43.554,127.031l-7.078,-0l-12.34,-35.751l-52.99,0l-12.34,35.751l-7.078,-0Zm21.051,-41.195l49.724,0l-18.51,-54.26c-0.303,-0.847 -0.878,-2.556 -1.724,-5.127c-0.847,-2.571 -1.724,-5.278 -2.632,-8.121c-0.907,-2.843 -1.573,-5.141 -1.996,-6.896c-0.423,1.755 -1.104,4.053 -2.042,6.896c-0.937,2.843 -1.845,5.55 -2.722,8.121c-0.877,2.571 -1.467,4.28 -1.769,5.127l-18.329,54.26Z" style="fill-rule:nonzero;fill:#ffffff;"/><path d="M1191.8,689.87l0,-120.498l-34.843,-0l0,-6.533l76.401,-0l-0,6.533l-35.025,-0l0,120.498l-6.533,-0Z" style="fill-rule:nonzero;fill:#ffffff;"/><path d="M1265.29,689.87l-0,-127.031l66.237,-0l0,5.988l-59.704,0l-0,52.264l40.287,0l-0,5.989l-40.287,-0l-0,56.801l63.697,-0l-0,5.989l-70.23,-0Z" style="fill-rule:nonzero;fill:#ffffff;"/><path d="M1369.73,689.87l0,-127.031l29.036,-0c10.526,-0 19.387,1.814 26.586,5.444c7.198,3.629 12.975,8.484 17.331,14.563c4.355,6.079 7.5,12.884 9.436,20.416c1.936,7.531 2.904,15.228 2.904,23.092c-0,7.319 -0.892,14.699 -2.677,22.14c-1.784,7.44 -4.809,14.291 -9.074,20.552c-4.264,6.26 -10.071,11.296 -17.421,15.107c-7.35,3.811 -16.62,5.717 -27.811,5.717l-28.31,-0Zm6.533,-6.533l21.777,-0c9.8,-0 17.936,-1.709 24.408,-5.127c6.473,-3.418 11.584,-7.939 15.335,-13.565c3.75,-5.626 6.412,-11.781 7.985,-18.465c1.572,-6.684 2.359,-13.293 2.359,-19.826c-0,-7.017 -0.847,-13.913 -2.541,-20.688c-1.694,-6.775 -4.461,-12.9 -8.302,-18.374c-3.841,-5.474 -8.923,-9.83 -15.244,-13.066c-6.321,-3.236 -14.079,-4.854 -23.274,-4.854l-22.503,-0l0,113.965Z" style="fill-rule:nonzero;fill:#ffffff;"/><path d="M1530.34,689.87l0,-127.031l29.036,-0c10.525,-0 19.387,1.814 26.585,5.444c7.199,3.629 12.976,8.484 17.331,14.563c4.356,6.079 7.501,12.884 9.437,20.416c1.935,7.531 2.903,15.228 2.903,23.092c0,7.319 -0.892,14.699 -2.676,22.14c-1.785,7.44 -4.809,14.291 -9.074,20.552c-4.265,6.26 -10.072,11.296 -17.421,15.107c-7.35,3.811 -16.62,5.717 -27.811,5.717l-28.31,-0Zm6.533,-6.533l21.777,-0c9.799,-0 17.935,-1.709 24.408,-5.127c6.472,-3.418 11.584,-7.939 15.334,-13.565c3.751,-5.626 6.412,-11.781 7.985,-18.465c1.573,-6.684 2.359,-13.293 2.359,-19.826c0,-7.017 -0.847,-13.913 -2.54,-20.688c-1.694,-6.775 -4.461,-12.9 -8.303,-18.374c-3.841,-5.474 -8.922,-9.83 -15.243,-13.066c-6.322,-3.236 -14.08,-4.854 -23.274,-4.854l-22.503,-0l0,113.965Z" style="fill-rule:nonzero;fill:#ffffff;"/><path d="M1650.2,689.87l-0,-127.031l43.553,-0c9.195,-0 16.454,1.633 21.777,4.899c5.323,3.267 9.104,7.441 11.342,12.522c2.238,5.081 3.357,10.344 3.357,15.788c0,5.626 -1.149,10.919 -3.447,15.879c-2.299,4.96 -5.898,9.089 -10.798,12.385c-4.9,3.297 -11.221,5.248 -18.964,5.853l29.217,59.705l-7.259,-0l-28.854,-59.705l-33.391,-0l-0,59.705l-6.533,-0Zm6.533,-65.694l37.02,0c7.562,0 13.52,-1.406 17.876,-4.219c4.355,-2.813 7.455,-6.382 9.3,-10.707c1.845,-4.325 2.767,-8.726 2.767,-13.202c0,-3.932 -0.862,-8 -2.586,-12.204c-1.724,-4.204 -4.748,-7.758 -9.073,-10.662c-4.325,-2.903 -10.42,-4.355 -18.284,-4.355l-37.02,0l-0,55.349Z" style="fill-rule:nonzero;fill:#ffffff;"/><rect x="1765.62" y="562.839" width="6.533" height="127.031" style="fill-rule:nonzero;fill:#ffffff;"/><path d="M1846.37,689.87l-43.372,-127.031l7.078,-0l36.294,105.98c0.484,1.27 0.923,2.495 1.316,3.675c0.393,1.179 0.801,2.495 1.225,3.947l2.54,-7.622l36.295,-105.98l7.077,-0l-43.372,127.031l-5.081,-0Z" style="fill-rule:nonzero;fill:#ffffff;"/><path d="M1924.4,689.87l-0,-127.031l66.237,-0l0,5.988l-59.704,0l-0,52.264l40.287,0l-0,5.989l-40.287,-0l-0,56.801l63.697,-0l-0,5.989l-70.23,-0Z" style="fill-rule:nonzero;fill:#ffffff;"/><path d="M2028.84,689.87l0,-127.031l43.554,-0c9.194,-0 16.453,1.633 21.776,4.899c5.324,3.267 9.104,7.441 11.343,12.522c2.238,5.081 3.357,10.344 3.357,15.788c-0,5.626 -1.15,10.919 -3.448,15.879c-2.299,4.96 -5.898,9.089 -10.798,12.385c-4.9,3.297 -11.221,5.248 -18.964,5.853l29.217,59.705l-7.259,-0l-28.854,-59.705l-33.391,-0l0,59.705l-6.533,-0Zm6.533,-65.694l37.021,0c7.561,0 13.519,-1.406 17.875,-4.219c4.355,-2.813 7.455,-6.382 9.3,-10.707c1.845,-4.325 2.768,-8.726 2.768,-13.202c-0,-3.932 -0.862,-8 -2.586,-12.204c-1.724,-4.204 -4.749,-7.758 -9.074,-10.662c-4.325,-2.903 -10.419,-4.355 -18.283,-4.355l-37.021,0l0,55.349Z" style="fill-rule:nonzero;fill:#ffffff;"/><path d="M2174.56,692.047c-6.473,0 -12.355,-1.225 -17.648,-3.675c-5.293,-2.449 -9.83,-5.701 -13.611,-9.754c-3.78,-4.053 -6.669,-8.468 -8.665,-13.247l6.896,-2.178c3.024,6.715 7.44,12.144 13.247,16.287c5.808,4.144 12.462,6.216 19.962,6.216c9.014,-0 16.257,-2.329 21.732,-6.987c5.474,-4.658 8.212,-11.463 8.212,-20.416c-0,-5.746 -1.452,-10.752 -4.356,-15.017c-2.903,-4.264 -6.684,-7.909 -11.342,-10.933c-4.658,-3.025 -9.648,-5.566 -14.971,-7.622c-4.235,-1.633 -8.424,-3.463 -12.567,-5.49c-4.144,-2.026 -7.925,-4.431 -11.342,-7.213c-3.418,-2.783 -6.155,-6.095 -8.212,-9.936c-2.057,-3.841 -3.085,-8.393 -3.085,-13.656c-0,-5.263 1.316,-9.996 3.947,-14.2c2.631,-4.204 6.503,-7.516 11.614,-9.936c5.112,-2.419 11.357,-3.629 18.737,-3.629c5.263,-0 10.132,0.862 14.609,2.586c4.476,1.724 8.317,4.143 11.523,7.259c3.206,3.115 5.505,6.79 6.896,11.024l-6.533,1.996c-2.177,-5.262 -5.52,-9.33 -10.026,-12.204c-4.507,-2.873 -10.178,-4.31 -17.013,-4.31c-8.408,0 -14.987,1.951 -19.735,5.853c-4.749,3.902 -7.123,9.21 -7.123,15.924c-0,5.444 1.512,9.966 4.537,13.565c3.024,3.599 6.926,6.639 11.705,9.119c4.778,2.48 9.769,4.779 14.971,6.896c3.993,1.633 8.03,3.554 12.113,5.762c4.084,2.208 7.819,4.885 11.206,8.03c3.388,3.146 6.125,6.866 8.212,11.161c2.087,4.295 3.13,9.346 3.13,15.153c0,7.138 -1.587,13.202 -4.763,18.192c-3.176,4.991 -7.546,8.802 -13.112,11.433c-5.565,2.632 -11.947,3.947 -19.145,3.947Z" style="fill-rule:nonzero;fill:#ffffff;"/></g></g></svg>