<?xml version="1.0" encoding="UTF-8" standalone="no"?><!DOCTYPE svg PUBLIC "-//W3C//DTD SVG 1.1//EN" "http://www.w3.org/Graphics/SVG/1.1/DTD/svg11.dtd"><svg width="100%" height="100%" viewBox="0 0 425 697" version="1.1" xmlns="http://www.w3.org/2000/svg" xmlns:xlink="http://www.w3.org/1999/xlink" xml:space="preserve" xmlns:serif="http://www.serif.com/" style="fill-rule:evenodd;clip-rule:evenodd;stroke-linecap:round;stroke-linejoin:round;stroke-miterlimit:1.5;"><g><g><path d="M-0,349.487c-0,-200.749 114.81,-349.487 269.085,-349.487c47.096,0 81.442,15.92 111.024,50.371l44.764,39.101l0,149.112l-27.759,-0.046l-0.036,-0.376l-0.027,0c-21.527,-140.525 -71.757,-215.35 -145.905,-215.35c-96.87,0 -155.471,107.676 -154.275,310.251c0.033,5.797 0.115,11.535 0.245,17.211" style="fill-rule:nonzero;fill:#ffffff;"/><path d="M-0,346.894c-0,200.75 114.81,349.488 269.085,349.488c47.096,-0 81.442,-15.92 111.024,-50.372l44.764,-39.101l-0.379,-148.1l-27.38,-0.965l-0.036,0.375l-0.027,0c-21.527,140.525 -71.757,215.35 -145.905,215.35c-96.87,0 -155.471,-107.675 -154.275,-310.25c0.033,-5.798 0.115,-11.535 0.245,-17.212" style="fill-rule:nonzero;fill:#ffffff;"/></g></g><g><rect x="129.818" y="486.306" width="238.692" height="48.291" style="fill:#ffffff;"/><g><path d="M109.621,460.93c18.83,126.487 77.05,176.626 77.05,176.626c0,-0 13.125,15.766 57.201,22.936" style="stroke:#ffffff;stroke-width:4.17px;"/><path d="M109.621,460.93l279.622,-1.323" style="fill:none;stroke:#ffffff;stroke-width:4.17px;"/><path d="M243.872,660.492c0,0 52.584,6.508 90.778,-50.878c-0,0 45.851,-75.622 54.593,-150.007" style="stroke:#ffffff;stroke-width:4.17px;"/></g><ellipse cx="248.032" cy="560.05" rx="95.14" ry="100.443" style="fill:#ffffff;"/><rect x="109.621" y="460.93" width="278.202" height="8.856" style="fill:#ffffff;"/><rect x="115.121" y="465.619" width="267.53" height="24.853" style="fill:#ffffff;"/></g></svg>